<?xml version="1.0" encoding="utf-8"?>
<?xml-stylesheet type="text/xsl" href="rss1.xsl"?>
<rss version="2.0" xmlns:atom="http://www.w3.org/2005/Atom" xmlns:content="http://purl.org/rss/1.0/modules/content/" xmlns:dc="http://purl.org/dc/elements/1.1/" xmlns:media="http://search.yahoo.com/mrss/">
<channel>
 <title>Getty</title>
 <link>http://www.gettyimg.com/</link>
 <atom:link href="http://www.gettyimg.com/" rel="self" type="application/rss+xml" />

 
                <item>
                <title><![CDATA[【HD Live Performances】WEB-RiP - Los Fabulosos Cadillacs 'Matador 30 Años' (Star+) 2023-05-27 Movistar Arena, Buenos Aires, Argentina]]></title>
                <link><![CDATA[https://sharemania.us/threads/los-fabulosos-cadillacs-matador-30-a%C3%B1os-star-2023-05-27-movistar-arena-buenos-aires-argentina.221615/]]></link>
                <description><![CDATA[<article>
<blockquote class="messageText SelectQuoteContainer ugc baseHtml">
<div style="text-align: center">Complete show (including pre-show and interview)<br>
<br>
Extracted directly from Star+​</div><br>
<a href="https://ibb.co/jf4cLnx" target="_blank" class="externalLink" rel="nofollow"><img src="https://i.ibb.co/g9g5DkX/Los-Fabulosos-Cadillacs-Matador-30-A-os-Star-Bellower-mkv-thumbs-2023-05-28-18-39-01.png" class="bbCodeImage LbImage" alt="[​IMG]" data-url="https://i.ibb.co/g9g5DkX/Los-Fabulosos-Cadillacs-Matador-30-A-os-Star-Bellower-mkv-thumbs-2023-05-28-18-39-01.png"></a><br>
<br>
<div class="ToggleTriggerAnchor bbCodeSpoilerContainer">
<button type="button" class="button bbCodeSpoilerButton ToggleTrigger Tooltip JsOnly" data-target="> .SpoilerTarget"><span>Spoiler: <span class="SpoilerTitle">Mediainfo</span></span></button>
<div class="SpoilerTarget bbCodeSpoilerText">General<br>
Unique ID : 266374398776368418059758399252588269487 (0xC865D7D58AF8E4C23AC1B03965BE0FAF)<br>
Complete name : Los Fabulosos Cadillacs - Matador 30 Años (Star+) - Bellower.mkv<br>
Format : Matroska<br>
Format version : Version 4 / Version 2<br>
File size : 7.87 GiB<br>
Duration : 2 h 40 min<br>
Overall bit rate : 6 998 kb/s<br>
Encoded date : UTC 2023-05-28 22:05:55<br>
Writing application : mkvmerge v48.0.0 ('Fortress Around Your Heart') 32-bit<br>
Writing library : libebml v1.4.0 + libmatroska v1.6.0<br>
<br>
Video<br>
ID : 1<br>
Format : AVC<br>
Format/Info : Advanced Video Codec<br>
Format profile : High@L3.2<br>
Format settings, CABAC : Yes<br>
Format settings, RefFrames : 4 frames<br>
Codec ID : V_MPEG4/ISO/AVC<br>
Duration : 2 h 40 min<br>
Bit rate mode : Constant<br>
Bit rate : 6 872 kb/s<br>
Width : 1 280 pixels<br>
Height : 720 pixels<br>
Display aspect ratio : 16:9<br>
Frame rate mode : Constant<br>
Frame rate : 59.940 (60000/1001) FPS<br>
Color space : YUV<br>
Chroma subsampling : 4:2:0<br>
Bit depth : 8 bits<br>
Scan type : Progressive<br>
Bits/(Pixel*Frame) : 0.124<br>
Stream size : 7.72 GiB (98%)<br>
Default : Yes<br>
Forced : No<br>
<br>
Audio<br>
ID : 2<br>
Format : AAC<br>
Format/Info : Advanced Audio Codec<br>
Format profile : LC<br>
Codec ID : A_AAC<br>
Duration : 2 h 40 min<br>
Bit rate : 125 kb/s<br>
Channel(s) : 2 channels<br>
Channel positions : Front: L R<br>
Sampling rate : 48.0 kHz<br>
Frame rate : 46.875 FPS (1024 SPF)<br>
Compression mode : Lossy<br>
Stream size : 144 MiB (2%)<br>
Default : Yes<br>
Forced : No</div>
</div><br>
Enjoy!<br>
Bellower<br>
<br>
<br>
<div class="bbCodeBlock bbCodeVfcHH HiddenContent">
<div class="attribution type">Hidden Content:</div>
<blockquote>You must reply before you can see the hidden data contained here.</blockquote>
</div>
<div class="messageTextEndMarker">&nbsp;</div>
</blockquote>
</article>]]></description>
                <author><![CDATA[Bellower]]></author>
                </item>

                
                <item>
                <title><![CDATA[【Albums (lossless)】ALAC - SZA - SOS (Apple Music 24-bit/44.1kHz ALAC) Apple Digital Master]]></title>
                <link><![CDATA[https://sharemania.us/threads/sza-sos-apple-music-24-bit-44-1khz-alac-apple-digital-master.221619/]]></link>
                <description><![CDATA[<article>
<blockquote class="messageText SelectQuoteContainer ugc baseHtml">
<img src="https://is3-ssl.mzstatic.com/image/thumb/Music122/v4/bd/3b/a9/bd3ba9fb-9609-144f-bcfe-ead67b5f6ab3/196589564931.jpg/1200x1200bf-60.jpg" class="bbCodeImage LbImage" alt="[​IMG]" data-url="https://is3-ssl.mzstatic.com/image/thumb/Music122/v4/bd/3b/a9/bd3ba9fb-9609-144f-bcfe-ead67b5f6ab3/196589564931.jpg/1200x1200bf-60.jpg" style=""><br>
24-bit/44.1kHz ALAC<br>
<br>
<a href="https://drive.google.com/drive/folders/1BFus7dEdLJqvokv5dKTm-V85fDSmMP1g?usp=share_link" target="_blank" class="externalLink" rel="nofollow">https://drive.google.com/drive/folders/1BFus7dEdLJqvokv5dKTm-V85fDSmMP1g?usp=share_link</a><br>
<br>
<br>
Apple Digital Master<br>
<br>
<a href="https://drive.google.com/drive/folders/1GRz5yBJRaY9UgoPDLX4C_kYDq41Cfk-5?usp=share_link" target="_blank" class="externalLink" rel="nofollow">https://drive.google.com/drive/folders/1GRz5yBJRaY9UgoPDLX4C_kYDq41Cfk-5?usp=share_link</a>
<div class="messageTextEndMarker">&nbsp;</div>
</blockquote>
</article>]]></description>
                <author><![CDATA[jay2chill1]]></author>
                </item>

                
                <item>
                <title><![CDATA[【PRORES HD】Shakira - Acrostico (Master DATA 4K Prores)]]></title>
                <link><![CDATA[https://sharemania.us/threads/shakira-acrostico-master-data-4k-prores.221620/]]></link>
                <description><![CDATA[<article>
<blockquote class="messageText SelectQuoteContainer ugc baseHtml">
<img src="https://i.imgur.com/TxqJsLH.jpg" class="bbCodeImage LbImage" alt="[​IMG]" data-url="https://i.imgur.com/TxqJsLH.jpg" style=""> <br>
<br>
<div class="bbCodeBlock bbCodeVfcHH HiddenContent">
<div class="attribution type">Hidden Content:</div>
<blockquote>You must reply before you can see the hidden data contained here.</blockquote>
</div>
<div class="messageTextEndMarker">&nbsp;</div>
</blockquote>
</article>]]></description>
                <author><![CDATA[VDZ.gl]]></author>
                </item>

                </channel></rss>